<svg width="258" height="36" viewBox="0 0 258 36" fill="none" xmlns="http://www.w3.org/2000/svg">
<g clip-path="url(#clip0_5_20089)">
<path d="M32.1432 0.0149775C35.5519 -0.219324 39.0374 2.23602 39.7986 5.5141C40.2318 7.37888 39.7553 9.12705 38.7808 10.7746C36.6184 14.4315 34.495 18.1097 32.3522 21.7782C30.2006 25.4607 28.0805 29.1603 25.877 32.8118C24.8364 34.5364 23.2187 35.5196 21.1938 35.8695C18.4402 36.3445 16.1338 35.5186 14.3667 33.4505C13.5102 32.448 12.9179 31.2198 12.2401 30.074C10.7555 27.5673 9.29265 25.0478 7.82112 22.5336C7.75831 22.4255 7.71283 22.3068 7.64353 22.2041C7.38149 21.8103 7.56882 21.728 7.9543 21.7055C13.0847 21.4177 16.9102 18.8789 19.6746 14.7727C21.4494 12.1366 22.9425 9.31427 24.5711 6.58183C25.3074 5.34613 26.008 4.08369 26.8266 2.90255C28.0913 1.07629 29.8866 0.106986 32.1432 0.0149775Z" fill="#1442A0"/>
<path d="M19.4855 0.122316C19.4859 0.122745 19.486 0.123418 19.4857 0.123946C19.0582 0.85965 18.6794 1.51521 18.2973 2.16863C16.6222 5.02839 14.9676 7.90099 13.2611 10.7426C12.2 12.5078 10.6321 13.5841 8.56716 14.0217C6.87148 14.3812 5.3014 14.1148 3.81362 13.3509C0.973416 11.8927 -0.510033 8.79433 0.159143 5.73023C0.777427 2.90149 2.56623 1.10839 5.33497 0.255709C5.7237 0.135884 6.15358 0.102718 6.56504 0.100578C10.7328 0.0866699 14.9016 0.0888097 19.0693 0.0866699C19.1581 0.0866699 19.2457 0.101628 19.4846 0.121934C19.4849 0.12196 19.4852 0.122096 19.4855 0.122316Z" fill="#1442A0"/>
</g>
<path d="M59.9835 22.9192H63.8392L71.8627 0.374956H68.1007L61.9503 19.029H61.8723L55.722 0.374956H51.96L59.9835 22.9192Z" fill="#1A202C"/>
<path d="M83.976 23.2941C90.4854 23.2941 94.5284 18.8103 94.5284 11.6549V11.6236C94.5284 4.48384 90.4698 0 83.976 0C77.4979 0 73.4237 4.46822 73.4237 11.6236V11.6549C73.4237 18.8259 77.4823 23.2941 83.976 23.2941ZM83.976 20.2007C79.6989 20.2007 76.9828 16.9042 76.9828 11.6549V11.6236C76.9828 6.37424 79.7145 3.09338 83.976 3.09338C88.2532 3.09338 90.9537 6.38987 90.9537 11.6236V11.6549C90.9537 16.8574 88.3 20.2007 83.976 20.2007Z" fill="#1A202C"/>
<path d="M107.5 23.2941C112.48 23.2941 116.211 20.2788 116.913 15.795L116.929 15.6388H113.463L113.416 15.7794C112.573 18.6384 110.497 20.2007 107.5 20.2007C103.332 20.2007 100.632 16.8574 100.632 11.6392V11.6236C100.632 6.40549 103.317 3.09338 107.5 3.09338C110.529 3.09338 112.62 4.70257 113.37 7.34288L113.463 7.65534H116.929L116.897 7.51473C116.195 3.06214 112.464 0 107.5 0C101.116 0 97.0572 4.46822 97.0572 11.6236V11.6392C97.0572 18.7946 101.116 23.2941 107.5 23.2941Z" fill="#1A202C"/>
<path d="M118.146 22.9192H121.815L123.891 16.8261H132.57L134.63 22.9192H138.299L130.119 0.374956H126.341L118.146 22.9192ZM128.199 4.10889H128.262L131.618 14.014H124.827L128.199 4.10889Z" fill="#1A202C"/>
<path d="M140.796 22.9192H149.835C154.627 22.9192 157.515 20.5132 157.515 16.5605V16.5293C157.515 13.5609 155.438 11.358 152.238 11.0299V10.9674C154.611 10.6237 156.406 8.42088 156.406 6.04616V6.01491C156.406 2.60907 153.784 0.374956 149.788 0.374956H140.796V22.9192ZM148.945 3.23399C151.474 3.23399 152.925 4.37448 152.925 6.43674V6.46798C152.925 8.73334 151.255 9.98319 148.164 9.98319H144.293V3.23399H148.945ZM148.882 12.686C152.223 12.686 153.94 13.9358 153.94 16.3574V16.3887C153.94 18.7946 152.254 20.0601 149.116 20.0601H144.293V12.686H148.882Z" fill="#1A202C"/>
<path d="M169.659 23.2941C175.326 23.2941 178.76 19.9351 178.76 14.9982V0.374956H175.279V14.717C175.279 17.9979 173.249 20.2007 169.659 20.2007C166.069 20.2007 164.024 17.9979 164.024 14.717V0.374956H160.527V14.9982C160.527 19.9351 164.008 23.2941 169.659 23.2941Z" fill="#1A202C"/>
<path d="M182.912 22.9192H196.899V19.9039H186.409V0.374956H182.912V22.9192Z" fill="#1A202C"/>
<path d="M198.225 22.9192H201.894L203.97 16.8261H212.649L214.71 22.9192H218.378L210.198 0.374956H206.421L198.225 22.9192ZM208.278 4.10889H208.341L211.697 14.014H204.907L208.278 4.10889Z" fill="#1A202C"/>
<path d="M220.876 22.9192H224.372V14.2639H229.18L233.769 22.9192H237.797L232.755 13.7327C235.455 12.811 237.126 10.3738 237.126 7.31163V7.28039C237.126 3.04651 234.222 0.374956 229.617 0.374956H220.876V22.9192ZM224.372 11.3893V3.31211H229.18C231.865 3.31211 233.52 4.81193 233.52 7.31163V7.34288C233.52 9.90507 231.974 11.3893 229.274 11.3893H224.372Z" fill="#1A202C"/>
<path d="M245.93 22.9192H249.426V13.6859L257.372 0.374956H253.485L247.74 10.3269H247.631L241.887 0.374956H238L245.93 13.6859V22.9192Z" fill="#1A202C"/>
<path d="M59.6538 34.4845H60.2879L61.4564 30.7472H61.47L62.6432 34.4845H63.2773L64.6134 29.9807H64.011L62.9557 33.8436H62.9421L61.769 29.9807H61.162L59.9889 33.8436H59.9753L58.92 29.9807H58.313L59.6538 34.4845Z" fill="#1442A0"/>
<path d="M72.8676 34.4845H73.47V31.8298C73.47 30.994 74.0136 30.4137 74.8289 30.4137C75.6306 30.4137 76.1197 30.9161 76.1197 31.8039V34.4845H76.7221V31.7129C76.7221 30.6086 76.0427 29.9027 75.0236 29.9027C74.2717 29.9027 73.7237 30.2535 73.4836 30.8035H73.47V28.2355H72.8676V34.4845Z" fill="#1442A0"/>
<path d="M86.7292 34.5668C87.4267 34.5668 88.0473 34.1987 88.3054 33.6617H88.3235V34.4845H88.9214V31.4011C88.9214 30.4787 88.2465 29.8984 87.1686 29.8984C86.1041 29.8984 85.4338 30.4527 85.3432 31.2279L85.3387 31.2799H85.9184L85.9275 31.2366C86.0271 30.7255 86.4756 30.4094 87.1595 30.4094C87.8933 30.4094 88.3235 30.8035 88.3235 31.4531V31.8428L86.856 31.9294C85.7735 31.9987 85.1666 32.4621 85.1666 33.2286V33.2373C85.1666 34.0341 85.8007 34.5668 86.7292 34.5668ZM85.778 33.2373V33.2286C85.778 32.7349 86.1902 32.4275 86.9285 32.3842L88.3235 32.2932V32.7912C88.3235 33.5101 87.6758 34.0644 86.8515 34.0644C86.2129 34.0644 85.778 33.731 85.778 33.2373Z" fill="#1442A0"/>
<path d="M98.9375 34.5668C99.0825 34.5668 99.2365 34.5494 99.3316 34.5321V34.0644C99.2637 34.0731 99.1685 34.0861 99.0598 34.0861C98.6205 34.0861 98.3986 33.9172 98.3986 33.4192V30.4614H99.3316V29.9807H98.3986V28.7638H97.7826V29.9807H97.0896V30.4614H97.7826V33.4278C97.7826 34.216 98.163 34.5668 98.9375 34.5668Z" fill="#1442A0"/>
<path d="M109.52 34.5668C110.539 34.5668 111.291 34.0081 111.454 33.2373L111.463 33.194H110.87L110.861 33.2329C110.707 33.7223 110.226 34.0558 109.533 34.0558C108.605 34.0558 108.002 33.4451 107.984 32.3712H111.522V32.146C111.522 30.7992 110.729 29.8984 109.47 29.8984C108.211 29.8984 107.377 30.8295 107.377 32.2412V32.2456C107.377 33.6703 108.197 34.5668 109.52 34.5668ZM109.465 30.4094C110.272 30.4094 110.851 30.9334 110.919 31.9165H107.993C108.066 30.9594 108.664 30.4094 109.465 30.4094Z" fill="#1442A0"/>
<path d="M121.085 34.4845H121.724L123.472 29.9807H122.847L121.411 33.8825H121.398L119.966 29.9807H119.332L121.085 34.4845Z" fill="#1442A0"/>
<path d="M133.429 34.5668C134.448 34.5668 135.2 34.0081 135.363 33.2373L135.372 33.194H134.779L134.77 33.2329C134.616 33.7223 134.136 34.0558 133.443 34.0558C132.514 34.0558 131.912 33.4451 131.894 32.3712H135.431V32.146C135.431 30.7992 134.639 29.8984 133.379 29.8984C132.12 29.8984 131.287 30.8295 131.287 32.2412V32.2456C131.287 33.6703 132.107 34.5668 133.429 34.5668ZM133.375 30.4094C134.181 30.4094 134.761 30.9334 134.829 31.9165H131.903C131.975 30.9594 132.573 30.4094 133.375 30.4094Z" fill="#1442A0"/>
<path d="M143.839 34.4845H144.437V31.6956C144.437 30.9334 144.863 30.4484 145.533 30.4484C145.737 30.4484 145.905 30.4787 145.982 30.509V29.9504C145.909 29.9287 145.769 29.8984 145.61 29.8984C145.04 29.8984 144.623 30.2405 144.455 30.7905H144.437V29.9807H143.839V34.4845Z" fill="#1442A0"/>
<path d="M164.066 36.0002C164.873 36.0002 165.258 35.6451 165.57 34.8439L167.459 29.9807H166.825L165.394 33.9128H165.375L163.949 29.9807H163.305L165.076 34.5148L164.963 34.8049C164.755 35.3549 164.479 35.5195 163.949 35.5195C163.872 35.5195 163.795 35.5108 163.736 35.5022V35.9742C163.822 35.9872 163.949 36.0002 164.066 36.0002Z" fill="#1442A0"/>
<path d="M177.43 34.5668C178.712 34.5668 179.577 33.666 179.577 32.2326V32.2239C179.577 30.7905 178.707 29.8984 177.43 29.8984C176.148 29.8984 175.283 30.7948 175.283 32.2239V32.2326C175.283 33.6617 176.143 34.5624 177.43 34.5668ZM177.434 34.0558C176.506 34.0514 175.899 33.3759 175.899 32.2326V32.2239C175.899 31.0893 176.51 30.4094 177.43 30.4094C178.349 30.4094 178.965 31.085 178.965 32.2239V32.2326C178.965 33.3715 178.354 34.0558 177.434 34.0558Z" fill="#1442A0"/>
<path d="M189.615 34.5624C190.376 34.5624 190.902 34.203 191.142 33.718H191.155V34.4845H191.758V29.9807H191.155V32.6483C191.155 33.4884 190.612 34.0514 189.788 34.0514C188.99 34.0514 188.556 33.6054 188.556 32.7696V29.9807H187.953V32.8648C187.953 33.9215 188.574 34.5624 189.615 34.5624Z" fill="#1442A0"/>
<path d="M210.816 34.4845H211.45L212.619 30.7472H212.633L213.806 34.4845H214.44L215.776 29.9807H215.174L214.118 33.8436H214.105L212.932 29.9807H212.325L211.151 33.8436H211.138L210.083 29.9807H209.476L210.816 34.4845Z" fill="#1442A0"/>
<path d="M225.294 34.5668C225.991 34.5668 226.612 34.1987 226.87 33.6617H226.888V34.4845H227.486V31.4011C227.486 30.4787 226.811 29.8984 225.733 29.8984C224.669 29.8984 223.998 30.4527 223.908 31.2279L223.903 31.2799H224.483L224.492 31.2366C224.592 30.7255 225.04 30.4094 225.724 30.4094C226.458 30.4094 226.888 30.8035 226.888 31.4531V31.8428L225.421 31.9294C224.338 31.9987 223.731 32.4621 223.731 33.2286V33.2373C223.731 34.0341 224.365 34.5668 225.294 34.5668ZM224.343 33.2373V33.2286C224.343 32.7349 224.755 32.4275 225.493 32.3842L226.888 32.2932V32.7912C226.888 33.5101 226.241 34.0644 225.416 34.0644C224.778 34.0644 224.343 33.731 224.343 33.2373Z" fill="#1442A0"/>
<path d="M236.098 34.4845H236.696V31.8169C236.696 30.9767 237.244 30.4137 238.064 30.4137C238.866 30.4137 239.3 30.8598 239.3 31.6956V34.4845H239.898V31.6003C239.898 30.5437 239.282 29.9027 238.241 29.9027C237.48 29.9027 236.95 30.2622 236.714 30.7472H236.696V29.9807H236.098V34.4845Z" fill="#1442A0"/>
<path d="M249.919 34.5668C250.064 34.5668 250.218 34.5494 250.313 34.5321V34.0644C250.245 34.0731 250.15 34.0861 250.041 34.0861C249.602 34.0861 249.38 33.9172 249.38 33.4192V30.4614H250.313V29.9807H249.38V28.7638H248.764V29.9807H248.071V30.4614H248.764V33.4278C248.764 34.216 249.144 34.5668 249.919 34.5668Z" fill="#1442A0"/>
<defs>
<clipPath id="clip0_5_20089">
<rect width="39.96" height="36" fill="white"/>
</clipPath>
</defs>
</svg>
